<svg width="30" height="29" viewBox="0 0 30 29" fill="none" xmlns="http://www.w3.org/2000/svg">
<path d="M4.05937 28.6306L4.09687 28.6231C7.52812 27.9425 9.62437 27.0444 10.5994 26.5513C12.0349 26.9341 13.5143 27.127 15 27.125C23.2838 27.125 30 21.2487 30 14C30 6.75125 23.2838 0.875 15 0.875C6.71625 0.875 0 6.75125 0 14C0 17.3 1.39313 20.3188 3.69375 22.625C3.5328 24.1064 3.20316 25.5646 2.71125 26.9713L2.70562 26.9919C2.56583 27.3948 2.41325 27.7931 2.24813 28.1862C2.1 28.535 2.38688 28.925 2.76 28.865C3.19437 28.7939 3.62755 28.7158 4.05937 28.6306V28.6306ZM5.55937 22.8031C5.58564 22.5286 5.55103 22.2517 5.45802 21.9921C5.365 21.7325 5.21587 21.4966 5.02125 21.3013C3.03375 19.3063 1.875 16.7525 1.875 14C1.875 8.015 7.5075 2.75 15 2.75C22.4925 2.75 28.125 8.015 28.125 14C28.125 19.9869 22.4925 25.25 15 25.25C13.6783 25.2519 12.3621 25.0805 11.085 24.74C10.6387 24.6204 10.164 24.6698 9.75188 24.8788C9.02625 25.2463 7.42687 25.9475 4.81312 26.5531C5.17777 25.329 5.4276 24.0736 5.55937 22.8031V22.8031Z" fill="white"/>
</svg>
