<svg width="28" height="30" viewBox="0 0 28 30" fill="none" xmlns="http://www.w3.org/2000/svg">
<path fill-rule="evenodd" clip-rule="evenodd" d="M14.636 1.94995C15.8844 0.701573 17.5775 0.000244141 19.343 0.000244141C21.1085 0.000244141 22.8016 0.701573 24.05 1.94995C25.2984 3.19832 25.9997 4.89148 25.9997 6.65695C25.9997 8.42241 25.2984 10.1156 24.05 11.3639L12.536 22.8779C12.1805 23.2336 11.7585 23.5157 11.294 23.7082C10.8294 23.9007 10.3315 23.9998 9.82872 23.9999C8.81321 24.0001 7.83922 23.5969 7.12101 22.8789C6.40281 22.161 5.99922 21.1872 5.99903 20.1717C5.99884 19.1561 6.40207 18.1822 7.12001 17.4639L18.29 6.29195L19.706 7.70795L8.53401 18.8779C8.36421 19.0477 8.22952 19.2493 8.13763 19.4712C8.04573 19.693 7.99844 19.9308 7.99844 20.1709C7.99844 20.4111 8.04573 20.6489 8.13763 20.8707C8.22952 21.0926 8.36421 21.2941 8.53401 21.4639C8.70381 21.6337 8.90539 21.7684 9.12725 21.8603C9.3491 21.9522 9.58688 21.9995 9.82701 21.9995C10.0671 21.9995 10.3049 21.9522 10.5268 21.8603C10.7486 21.7684 10.9502 21.6337 11.12 21.4639L22.634 9.94995C23.0665 9.5175 23.4095 9.00412 23.6435 8.43911C23.8776 7.87409 23.998 7.26851 23.998 6.65695C23.998 6.04538 23.8776 5.4398 23.6435 4.87479C23.4095 4.30977 23.0665 3.79639 22.634 3.36395C22.2016 2.9315 21.6882 2.58847 21.1232 2.35444C20.5582 2.1204 19.9526 1.99994 19.341 1.99994C18.7294 1.99994 18.1239 2.1204 17.5589 2.35444C16.9938 2.58847 16.4805 2.9315 16.048 3.36395L4.19201 15.2219C2.81666 16.6316 2.05221 18.5264 2.06434 20.4959C2.07647 22.4653 2.86419 24.3506 4.2568 25.7432C5.6494 27.1358 7.5347 27.9235 9.5041 27.9356C11.4735 27.9477 13.3684 27.1833 14.778 25.8079L26.292 14.2919L27.708 15.7079L16.192 27.2219C14.4023 28.9473 12.0069 29.9011 9.52113 29.8783C7.03535 29.8554 4.65786 28.8577 2.9002 27.0998C1.14254 25.3419 0.14518 22.9642 0.122703 20.4784C0.100226 17.9926 1.05443 15.5974 2.78001 13.8079L14.636 1.94795V1.94995Z" fill="#3C3C3C"/>
</svg>
