<svg width="30" height="30" viewBox="0 0 30 30" fill="none" xmlns="http://www.w3.org/2000/svg">
<path d="M26.25 8.4375H10.3125C10.0639 8.4375 9.8254 8.33873 9.64959 8.16291C9.47377 7.9871 9.375 7.74864 9.375 7.5C9.375 7.25136 9.47377 7.0129 9.64959 6.83709C9.8254 6.66127 10.0639 6.5625 10.3125 6.5625H26.25C26.4986 6.5625 26.7371 6.66127 26.9129 6.83709C27.0887 7.0129 27.1875 7.25136 27.1875 7.5C27.1875 7.74864 27.0887 7.9871 26.9129 8.16291C26.7371 8.33873 26.4986 8.4375 26.25 8.4375Z" fill="#3C3C3C"/>
<path d="M6.5625 8.4375H3.75C3.50136 8.4375 3.2629 8.33873 3.08709 8.16291C2.91127 7.9871 2.8125 7.74864 2.8125 7.5C2.8125 7.25136 2.91127 7.0129 3.08709 6.83709C3.2629 6.66127 3.50136 6.5625 3.75 6.5625H6.5625C6.81114 6.5625 7.0496 6.66127 7.22541 6.83709C7.40123 7.0129 7.5 7.25136 7.5 7.5C7.5 7.74864 7.40123 7.9871 7.22541 8.16291C7.0496 8.33873 6.81114 8.4375 6.5625 8.4375Z" fill="#3C3C3C"/>
<path d="M19.6875 15.9375H3.75C3.50136 15.9375 3.2629 15.8387 3.08709 15.6629C2.91127 15.4871 2.8125 15.2486 2.8125 15C2.8125 14.7514 2.91127 14.5129 3.08709 14.3371C3.2629 14.1613 3.50136 14.0625 3.75 14.0625H19.6875C19.9361 14.0625 20.1746 14.1613 20.3504 14.3371C20.5262 14.5129 20.625 14.7514 20.625 15C20.625 15.2486 20.5262 15.4871 20.3504 15.6629C20.1746 15.8387 19.9361 15.9375 19.6875 15.9375Z" fill="#3C3C3C"/>
<path d="M10.3125 23.4375H3.75C3.50136 23.4375 3.2629 23.3387 3.08709 23.1629C2.91127 22.9871 2.8125 22.7486 2.8125 22.5C2.8125 22.2514 2.91127 22.0129 3.08709 21.8371C3.2629 21.6613 3.50136 21.5625 3.75 21.5625H10.3125C10.5611 21.5625 10.7996 21.6613 10.9754 21.8371C11.1512 22.0129 11.25 22.2514 11.25 22.5C11.25 22.7486 11.1512 22.9871 10.9754 23.1629C10.7996 23.3387 10.5611 23.4375 10.3125 23.4375Z" fill="#3C3C3C"/>
<path d="M8.4375 10.3125C7.88124 10.3125 7.33747 10.1476 6.87496 9.83851C6.41245 9.52947 6.05196 9.09022 5.83909 8.5763C5.62622 8.06238 5.57052 7.49688 5.67904 6.95131C5.78756 6.40574 6.05543 5.9046 6.44876 5.51126C6.8421 5.11793 7.34324 4.85006 7.88881 4.74154C8.43438 4.63302 8.99988 4.68872 9.5138 4.90159C10.0277 5.11446 10.467 5.47495 10.776 5.93746C11.0851 6.39997 11.25 6.94374 11.25 7.5C11.25 8.24592 10.9537 8.96129 10.4262 9.48874C9.89879 10.0162 9.18342 10.3125 8.4375 10.3125ZM8.4375 6.5625C8.25208 6.5625 8.07082 6.61748 7.91665 6.7205C7.76248 6.82351 7.64232 6.96993 7.57136 7.14124C7.50041 7.31254 7.48184 7.50104 7.51801 7.6829C7.55419 7.86476 7.64348 8.0318 7.77459 8.16291C7.9057 8.29403 8.07275 8.38331 8.2546 8.41949C8.43646 8.45566 8.62496 8.4371 8.79627 8.36614C8.96757 8.29518 9.11399 8.17502 9.217 8.02085C9.32002 7.86668 9.375 7.68542 9.375 7.5C9.375 7.25136 9.27623 7.0129 9.10041 6.83709C8.9246 6.66127 8.68614 6.5625 8.4375 6.5625Z" fill="#3C3C3C"/>
<path d="M21.5625 17.8125C21.0062 17.8125 20.4625 17.6476 20 17.3385C19.5374 17.0295 19.177 16.5902 18.9641 16.0763C18.7512 15.5624 18.6955 14.9969 18.804 14.4513C18.9126 13.9057 19.1804 13.4046 19.5738 13.0113C19.9671 12.6179 20.4682 12.3501 21.0138 12.2415C21.5594 12.133 22.1249 12.1887 22.6388 12.4016C23.1527 12.6145 23.592 12.9749 23.901 13.4375C24.2101 13.9 24.375 14.4437 24.375 15C24.375 15.7459 24.0787 16.4613 23.5512 16.9887C23.0238 17.5162 22.3084 17.8125 21.5625 17.8125ZM21.5625 14.0625C21.3771 14.0625 21.1958 14.1175 21.0417 14.2205C20.8875 14.3235 20.7673 14.4699 20.6964 14.6412C20.6254 14.8125 20.6068 15.001 20.643 15.1829C20.6792 15.3648 20.7685 15.5318 20.8996 15.6629C21.0307 15.794 21.1977 15.8833 21.3796 15.9195C21.5615 15.9557 21.75 15.9371 21.9213 15.8661C22.0926 15.7952 22.239 15.675 22.342 15.5208C22.445 15.3667 22.5 15.1854 22.5 15C22.5 14.7514 22.4012 14.5129 22.2254 14.3371C22.0496 14.1613 21.8111 14.0625 21.5625 14.0625Z" fill="#3C3C3C"/>
<path d="M12.1875 25.3125C11.6312 25.3125 11.0875 25.1476 10.625 24.8385C10.1624 24.5295 9.80196 24.0902 9.58909 23.5763C9.37622 23.0624 9.32052 22.4969 9.42904 21.9513C9.53756 21.4057 9.80543 20.9046 10.1988 20.5113C10.5921 20.1179 11.0932 19.8501 11.6388 19.7415C12.1844 19.633 12.7499 19.6887 13.2638 19.9016C13.7777 20.1145 14.217 20.4749 14.526 20.9375C14.8351 21.4 15 21.9437 15 22.5C15 23.2459 14.7037 23.9613 14.1762 24.4887C13.6488 25.0162 12.9334 25.3125 12.1875 25.3125ZM12.1875 21.5625C12.0021 21.5625 11.8208 21.6175 11.6667 21.7205C11.5125 21.8235 11.3923 21.9699 11.3214 22.1412C11.2504 22.3125 11.2318 22.501 11.268 22.6829C11.3042 22.8648 11.3935 23.0318 11.5246 23.1629C11.6557 23.294 11.8227 23.3833 12.0046 23.4195C12.1865 23.4557 12.375 23.4371 12.5463 23.3661C12.7176 23.2952 12.864 23.175 12.967 23.0208C13.07 22.8667 13.125 22.6854 13.125 22.5C13.125 22.2514 13.0262 22.0129 12.8504 21.8371C12.6746 21.6613 12.4361 21.5625 12.1875 21.5625Z" fill="#3C3C3C"/>
<path d="M26.25 15.9375H23.4375C23.1889 15.9375 22.9504 15.8387 22.7746 15.6629C22.5988 15.4871 22.5 15.2486 22.5 15C22.5 14.7514 22.5988 14.5129 22.7746 14.3371C22.9504 14.1613 23.1889 14.0625 23.4375 14.0625H26.25C26.4986 14.0625 26.7371 14.1613 26.9129 14.3371C27.0887 14.5129 27.1875 14.7514 27.1875 15C27.1875 15.2486 27.0887 15.4871 26.9129 15.6629C26.7371 15.8387 26.4986 15.9375 26.25 15.9375Z" fill="#3C3C3C"/>
<path d="M26.25 23.4375H14.0625C13.8139 23.4375 13.5754 23.3387 13.3996 23.1629C13.2238 22.9871 13.125 22.7486 13.125 22.5C13.125 22.2514 13.2238 22.0129 13.3996 21.8371C13.5754 21.6613 13.8139 21.5625 14.0625 21.5625H26.25C26.4986 21.5625 26.7371 21.6613 26.9129 21.8371C27.0887 22.0129 27.1875 22.2514 27.1875 22.5C27.1875 22.7486 27.0887 22.9871 26.9129 23.1629C26.7371 23.3387 26.4986 23.4375 26.25 23.4375Z" fill="#3C3C3C"/>
</svg>
