<svg width="30" height="30" viewBox="0 0 30 30" fill="none" xmlns="http://www.w3.org/2000/svg">
<path d="M29.7263 0.273665C29.8561 0.403662 29.9449 0.568929 29.9815 0.748935C30.0182 0.92894 30.0012 1.11575 29.9326 1.28616L19.022 28.5618C18.9258 28.802 18.7653 29.011 18.558 29.1659C18.3507 29.3207 18.1047 29.4153 17.8471 29.4394C17.5894 29.4634 17.3302 29.4159 17.0978 29.3021C16.8655 29.1883 16.669 29.0126 16.5301 28.7943L10.5713 19.4287L1.20571 13.4699C0.986932 13.3311 0.810745 13.1346 0.696592 12.902C0.582438 12.6694 0.534756 12.4099 0.558807 12.1519C0.582858 11.8939 0.677707 11.6476 0.832887 11.4401C0.988068 11.2327 1.19755 11.0721 1.43821 10.9762L28.7138 0.0692896C28.8842 0.00068759 29.0711 -0.0163369 29.2511 0.0203309C29.4311 0.0569988 29.5963 0.145743 29.7263 0.27554V0.273665ZM12.4426 18.8812L17.6195 27.0149L26.4938 4.82991L12.4426 18.8812ZM25.1682 3.50429L2.98321 12.3787L11.1188 17.5537L25.1701 3.50429H25.1682Z" fill="#3C3C3C"/>
</svg>
