<svg width="30" height="30" viewBox="0 0 30 30" fill="none" xmlns="http://www.w3.org/2000/svg">
<path d="M24.2499 18.75C24.0835 19.127 24.0339 19.5452 24.1074 19.9507C24.181 20.3562 24.3743 20.7304 24.6624 21.025L24.7374 21.1C24.9699 21.3322 25.1543 21.6079 25.2801 21.9114C25.4059 22.2149 25.4707 22.5402 25.4707 22.8687C25.4707 23.1973 25.4059 23.5226 25.2801 23.8261C25.1543 24.1296 24.9699 24.4053 24.7374 24.6375C24.5053 24.8699 24.2295 25.0543 23.926 25.1801C23.6225 25.306 23.2972 25.3707 22.9687 25.3707C22.6401 25.3707 22.3148 25.306 22.0113 25.1801C21.7078 25.0543 21.4321 24.8699 21.1999 24.6375L21.1249 24.5625C20.8303 24.2743 20.4562 24.081 20.0507 24.0075C19.6452 23.934 19.227 23.9836 18.8499 24.15C18.4802 24.3085 18.1649 24.5716 17.9428 24.9069C17.7207 25.2423 17.6015 25.6353 17.5999 26.0375V26.25C17.5999 26.913 17.3365 27.5489 16.8677 28.0178C16.3989 28.4866 15.763 28.75 15.0999 28.75C14.4369 28.75 13.801 28.4866 13.3322 28.0178C12.8633 27.5489 12.5999 26.913 12.5999 26.25V26.1375C12.5903 25.7238 12.4563 25.3225 12.2156 24.9859C11.9748 24.6493 11.6384 24.3929 11.2499 24.25C10.8729 24.0836 10.4547 24.034 10.0492 24.1075C9.64371 24.181 9.26954 24.3743 8.97494 24.6625L8.89994 24.7375C8.66776 24.9699 8.39203 25.1543 8.08854 25.2801C7.78504 25.406 7.45973 25.4707 7.13119 25.4707C6.80265 25.4707 6.47733 25.406 6.17384 25.2801C5.87034 25.1543 5.59462 24.9699 5.36244 24.7375C5.13 24.5053 4.9456 24.2296 4.81979 23.9261C4.69398 23.6226 4.62922 23.2973 4.62922 22.9687C4.62922 22.6402 4.69398 22.3149 4.81979 22.0114C4.9456 21.7079 5.13 21.4322 5.36244 21.2L5.43744 21.125C5.72561 20.8304 5.91892 20.4562 5.99244 20.0507C6.06597 19.6452 6.01633 19.227 5.84994 18.85C5.69148 18.4803 5.42838 18.165 5.09302 17.9429C4.75766 17.7208 4.36467 17.6016 3.96244 17.6H3.74994C3.0869 17.6 2.45101 17.3366 1.98217 16.8678C1.51333 16.3989 1.24994 15.763 1.24994 15.1C1.24994 14.437 1.51333 13.8011 1.98217 13.3322C2.45101 12.8634 3.0869 12.6 3.74994 12.6H3.86244C4.27618 12.5903 4.67744 12.4564 5.01406 12.2156C5.35068 11.9749 5.60708 11.6384 5.74994 11.25C5.91633 10.873 5.96597 10.4548 5.89244 10.0493C5.81892 9.64377 5.62561 9.2696 5.33744 8.975L5.26244 8.9C5.03 8.66782 4.8456 8.3921 4.71979 8.0886C4.59398 7.7851 4.52922 7.45979 4.52922 7.13125C4.52922 6.80271 4.59398 6.47739 4.71979 6.1739C4.8456 5.8704 5.03 5.59468 5.26244 5.3625C5.49462 5.13006 5.77034 4.94566 6.07384 4.81985C6.37733 4.69404 6.70265 4.62928 7.03119 4.62928C7.35973 4.62928 7.68504 4.69404 7.98854 4.81985C8.29203 4.94566 8.56776 5.13006 8.79994 5.3625L8.87494 5.4375C9.16954 5.72567 9.54371 5.91898 9.9492 5.99251C10.3547 6.06603 10.7729 6.01639 11.1499 5.85H11.2499C11.6196 5.69155 11.935 5.42844 12.1571 5.09308C12.3791 4.75772 12.4983 4.36473 12.4999 3.9625V3.75C12.4999 3.08696 12.7633 2.45107 13.2322 1.98223C13.701 1.51339 14.3369 1.25 14.9999 1.25C15.663 1.25 16.2989 1.51339 16.7677 1.98223C17.2365 2.45107 17.4999 3.08696 17.4999 3.75V3.8625C17.5015 4.26473 17.6207 4.65772 17.8428 4.99308C18.0649 5.32844 18.3802 5.59155 18.7499 5.75C19.127 5.91639 19.5452 5.96603 19.9507 5.89251C20.3562 5.81898 20.7303 5.62567 21.0249 5.3375L21.0999 5.2625C21.3321 5.03006 21.6078 4.84566 21.9113 4.71985C22.2148 4.59404 22.5401 4.52928 22.8687 4.52928C23.1972 4.52928 23.5225 4.59404 23.826 4.71985C24.1295 4.84566 24.4053 5.03006 24.6374 5.2625C24.8699 5.49468 25.0543 5.7704 25.1801 6.0739C25.3059 6.37739 25.3707 6.70271 25.3707 7.03125C25.3707 7.35979 25.3059 7.6851 25.1801 7.9886C25.0543 8.2921 24.8699 8.56782 24.6374 8.8L24.5624 8.875C24.2743 9.1696 24.081 9.54377 24.0074 9.94926C23.9339 10.3548 23.9835 10.773 24.1499 11.15V11.25C24.3084 11.6197 24.5715 11.935 24.9069 12.1571C25.2422 12.3792 25.6352 12.4984 26.0374 12.5H26.2499C26.913 12.5 27.5489 12.7634 28.0177 13.2322C28.4865 13.7011 28.7499 14.337 28.7499 15C28.7499 15.663 28.4865 16.2989 28.0177 16.7678C27.5489 17.2366 26.913 17.5 26.2499 17.5H26.1374C25.7352 17.5016 25.3422 17.6208 25.0069 17.8429C24.6715 18.065 24.4084 18.3803 24.2499 18.75V18.75Z" stroke="white" stroke-width="2" stroke-linecap="round" stroke-linejoin="round"/>
</svg>
